<svg xmlns="http://www.w3.org/2000/svg" xmlns:xlink="http://www.w3.org/1999/xlink" width="500" zoomAndPan="magnify" viewBox="0 0 375 374.999991" height="500" preserveAspectRatio="xMidYMid meet" version="1.0"><defs><g/><clipPath id="id1"><path d="M 37.5 37.5 L 337.261719 37.5 L 337.261719 337.261719 L 37.5 337.261719 Z M 37.5 37.5 " clip-rule="nonzero"/></clipPath></defs><g fill="#00c2cb" fill-opacity="1"><g transform="translate(61.11184, 221.624985)"><g><path d="M 61.53125 -91.359375 C 63.445312 -91.359375 65.601562 -88.40625 68 -82.5 L 68 -81.78125 C 68 -80.78125 64.960938 -80.21875 58.890625 -80.09375 C 55.410156 -79.300781 51.019531 -77.226562 45.71875 -73.875 C 37.726562 -68.757812 33.734375 -64.285156 33.734375 -60.453125 L 33.734375 -58.765625 C 33.734375 -55.773438 37.566406 -52.984375 45.234375 -50.390625 C 64.398438 -41.398438 73.984375 -33.410156 73.984375 -26.421875 C 73.984375 -21.941406 70.789062 -16.269531 64.40625 -9.40625 C 57.570312 -3.769531 51.976562 -0.175781 47.625 1.375 C 47.625 1.8125 43.390625 3.8125 34.921875 7.375 C 25.253906 11.207031 17.75 13.125 12.40625 13.125 C 6.570312 13.125 2.65625 10.488281 0.65625 5.21875 L 0.65625 0.421875 C 2.257812 -4.492188 4.335938 -8.328125 6.890625 -11.078125 C 12.046875 -17.785156 17.398438 -21.140625 22.953125 -21.140625 L 27.5 -21.140625 C 27.820312 -21.109375 27.984375 -20.953125 27.984375 -20.671875 L 27.984375 -20.421875 C 27.984375 -18.984375 25.742188 -16.03125 21.265625 -11.5625 C 19.472656 -9.28125 18.113281 -7.203125 17.1875 -5.328125 L 17.1875 -3.421875 C 17.269531 -2.816406 18.226562 -2.253906 20.0625 -1.734375 C 23.101562 -1.734375 30.773438 -4.53125 43.078125 -10.125 C 52.503906 -15.632812 57.21875 -20.347656 57.21875 -24.265625 C 57.21875 -28.691406 48.828125 -33.800781 32.046875 -39.59375 C 31.734375 -39.875 29.578125 -40.992188 25.578125 -42.953125 C 19.503906 -46.742188 16.46875 -50.976562 16.46875 -55.65625 L 16.46875 -56.140625 C 16.46875 -65.835938 25.816406 -75.820312 44.515625 -86.09375 C 52.140625 -89.601562 57.8125 -91.359375 61.53125 -91.359375 Z M 61.53125 -91.359375 "/></g></g></g><g fill="#00c2cb" fill-opacity="1"><g transform="translate(143.500907, 221.624985)"><g><path d="M 61.53125 -91.359375 C 63.445312 -91.359375 65.601562 -88.40625 68 -82.5 L 68 -81.78125 C 68 -80.78125 64.960938 -80.21875 58.890625 -80.09375 C 55.410156 -79.300781 51.019531 -77.226562 45.71875 -73.875 C 37.726562 -68.757812 33.734375 -64.285156 33.734375 -60.453125 L 33.734375 -58.765625 C 33.734375 -55.773438 37.566406 -52.984375 45.234375 -50.390625 C 64.398438 -41.398438 73.984375 -33.410156 73.984375 -26.421875 C 73.984375 -21.941406 70.789062 -16.269531 64.40625 -9.40625 C 57.570312 -3.769531 51.976562 -0.175781 47.625 1.375 C 47.625 1.8125 43.390625 3.8125 34.921875 7.375 C 25.253906 11.207031 17.75 13.125 12.40625 13.125 C 6.570312 13.125 2.65625 10.488281 0.65625 5.21875 L 0.65625 0.421875 C 2.257812 -4.492188 4.335938 -8.328125 6.890625 -11.078125 C 12.046875 -17.785156 17.398438 -21.140625 22.953125 -21.140625 L 27.5 -21.140625 C 27.820312 -21.109375 27.984375 -20.953125 27.984375 -20.671875 L 27.984375 -20.421875 C 27.984375 -18.984375 25.742188 -16.03125 21.265625 -11.5625 C 19.472656 -9.28125 18.113281 -7.203125 17.1875 -5.328125 L 17.1875 -3.421875 C 17.269531 -2.816406 18.226562 -2.253906 20.0625 -1.734375 C 23.101562 -1.734375 30.773438 -4.53125 43.078125 -10.125 C 52.503906 -15.632812 57.21875 -20.347656 57.21875 -24.265625 C 57.21875 -28.691406 48.828125 -33.800781 32.046875 -39.59375 C 31.734375 -39.875 29.578125 -40.992188 25.578125 -42.953125 C 19.503906 -46.742188 16.46875 -50.976562 16.46875 -55.65625 L 16.46875 -56.140625 C 16.46875 -65.835938 25.816406 -75.820312 44.515625 -86.09375 C 52.140625 -89.601562 57.8125 -91.359375 61.53125 -91.359375 Z M 61.53125 -91.359375 "/></g></g></g><g fill="#00c2cb" fill-opacity="1"><g transform="translate(225.889974, 221.624985)"><g><path d="M 32.921875 -79.015625 C 36.773438 -80.492188 40.695312 -78.140625 44.6875 -71.953125 C 46.050781 -67.835938 46.953125 -65.78125 47.390625 -65.78125 C 52.546875 -71.96875 56.921875 -75.0625 60.515625 -75.0625 C 66.984375 -75.0625 71.875 -56.710938 75.1875 -20.015625 C 77.300781 -16.773438 81.035156 -12.660156 86.390625 -7.671875 L 86.390625 -6.890625 C 85.992188 -5.566406 84.316406 -4.90625 81.359375 -4.90625 L 79.4375 -4.90625 C 72.09375 -4.90625 66.75 -7.519531 63.40625 -12.75 C 60.070312 -17.988281 58.34375 -27.554688 58.21875 -41.453125 C 58.101562 -55.359375 56.691406 -62.3125 53.984375 -62.3125 C 51.546875 -62.3125 47.789062 -44.851562 42.71875 -9.9375 C 40.5625 -8.257812 37.742188 -6.523438 34.265625 -4.734375 C 31.035156 -4.734375 29.097656 -6.929688 28.453125 -11.328125 C 30.410156 -18.796875 31.597656 -29.785156 32.015625 -44.296875 C 32.441406 -58.816406 32.070312 -66.097656 30.90625 -66.140625 C 29.75 -66.179688 28.332031 -65.742188 26.65625 -64.828125 C 18.425781 -60.710938 13.375 -43.097656 11.5 -11.984375 C 9.34375 -10.304688 6.128906 -8.664062 1.859375 -7.0625 C -1.378906 -7.0625 -3.316406 -9.257812 -3.953125 -13.65625 C 2.515625 -48.882812 5.75 -69.15625 5.75 -74.46875 C 5.75 -75.75 5.367188 -78.207031 4.609375 -81.84375 L 4.609375 -82.96875 C 4.691406 -83.488281 4.953125 -83.75 5.390625 -83.75 L 6.53125 -83.75 C 9.769531 -83.75 13.382812 -80.65625 17.375 -74.46875 C 18.726562 -70.351562 19.625 -68.296875 20.0625 -68.296875 C 24.78125 -73.972656 29.066406 -77.546875 32.921875 -79.015625 Z M 32.921875 -79.015625 "/></g></g></g><g clip-path="url(#id1)"><path fill="#ffffff" d="M 187.378906 337.261719 C 147.363281 337.261719 109.683594 321.683594 81.410156 293.351562 C 53.074219 265.074219 37.5 227.394531 37.5 187.378906 C 37.5 147.363281 53.074219 109.683594 81.410156 81.410156 C 109.683594 53.074219 147.363281 37.5 187.378906 37.5 C 227.394531 37.5 265.074219 53.074219 293.351562 81.410156 C 321.683594 109.746094 337.261719 147.363281 337.261719 187.378906 C 337.261719 227.394531 321.683594 265.074219 293.351562 293.351562 C 265.074219 321.683594 227.394531 337.261719 187.378906 337.261719 M 187.378906 46.484375 C 149.761719 46.484375 114.355469 61.164062 87.757812 87.757812 C 61.164062 114.355469 46.484375 149.761719 46.484375 187.378906 C 46.484375 225 61.164062 260.402344 87.757812 287 C 114.355469 313.597656 149.761719 328.273438 187.378906 328.273438 C 225 328.273438 260.402344 313.597656 287 287 C 313.597656 260.402344 328.273438 225 328.273438 187.378906 C 328.273438 149.761719 313.597656 114.355469 287 87.757812 C 260.402344 61.164062 225 46.484375 187.378906 46.484375 " fill-opacity="1" fill-rule="nonzero"/></g></svg>